<?xml version="1.0" encoding="UTF-8"?>
<svg id="Layer_1" data-name="Layer 1" xmlns="http://www.w3.org/2000/svg" viewBox="0 0 1509.86 316.65">
  <defs>
    <style>
      .cls-1 {
        fill: #4633ff;
      }
    </style>
  </defs>
  <g>
    <g>
      <circle class="cls-1" cx="288.67" cy="148.58" r="5.9"/>
      <path class="cls-1" d="M329.44,153.98c-.37-.22-.61-.59-.7-1.01-12.74-64.95-91.03-75.92-142.84-51.1-.42.2-.92.2-1.33-.02-19.06-9.83-47.1-10.29-64.62,2.86-9.92,7.43,5.27,10.14,10.25,12.37,6.14,2.73,12,6.88,15.12,13,.28.57.2,1.25-.24,1.7-20.26,21.85-39.4,47.99-47.88,76.95-1.05,3.61-3.91,13.03-2.58,16.22,2.71,6.53,11.47-4.39,13.86-6.4,19.54-16.43,39.84-26.31,65.11-30.99,13.05-2.4,26.51-3.43,39.75-2.34.79.07,1.4.74,1.38,1.53-.15,6.64-3.26,13.51-6.36,19.23-1.6,2.95-9.46,13.44-9.53,15.28-.26,5.86,11.91,3.26,15.5,2.58,8.41-1.64,15.76-5.18,22.58-10.05,1.22-.87,2.84.46,2.23,1.84-1.53,3.47-3.72,7.43-2.86,9.33,1.33,3.02,5.35.9,7.32-.09,11.54-5.75,21.16-19.54,23.98-32,.7-3.1.87-6.27,1.49-9.38.13-.61.61-1.09,1.25-1.2,12.04-1.84,24.04-1.99,36.06.31,9.27,1.77,18.58,5.77,27.6,7.56,8,1.55,17.53-.39,20.28-9.16,4.87-15.5-14.6-21.09-24.78-27.03ZM338.32,180.84c-6.88-.66-17.2-5.38-24.56-7.12-15.6-3.72-40.85-4.94-56.08.37-3.58,1.27-5.42,7.26-7.41,10.42-7.58,12.15-20.43,25.44-34.84,29.07-.26.07-.81.15-.72-.24,3.26-4.44,5.92-8.92,7.54-14.23,1.7-5.51,3.1-14.23,1.73-19.82-1.11-4.55-3.89-4.31-8.04-4.83-17.9-2.19-42.27,1.92-59.66,6.69-15.69,4.31-29.85,11.19-42.97,20.5-1.2.87-2.82-.39-2.25-1.79,10.05-24.87,26.88-46.31,45.59-65.32.33-.35.5-.83.42-1.29-1.4-7.61-6.25-14.21-11.93-19.28-.96-.85-2.03-1.57-3.17-2.16l-3.54-1.88h-.02c-1.16-.63-1.03-2.34.24-2.75,2.19-.72,4.35-1.6,6.53-1.99,14.03-2.51,26.93,2.08,39.34,7.96.42.2.87.17,1.29,0,30.07-14.45,66.57-19.65,97.43-4.48,17.42,8.59,28.37,21.68,34.14,40.17,1.81,5.81.79,10.34,6.47,13.83,5.46,3.37,13.05,5.97,18.12,9.62,5,3.56,2.64,9.18-3.63,8.57Z"/>
    </g>
    <g>
      <rect class="cls-1" x="224.95" y="131.73" width="19.39" height="19.99" rx="1.76" ry="1.76" transform="translate(469.28 283.45) rotate(180)"/>
      <path class="cls-1" d="M211.78,128.78v5.07h-7.82c-.74,0-1.46-.35-1.95-.92l-5.25-6.29c-.33.07-.68.11-1.05.11-2.88,0-5.2-2.32-5.2-5.2s2.32-5.22,5.2-5.22,5.22,2.34,5.22,5.22c0,.63-.11,1.25-.33,1.79l4.52,5.44h6.64Z"/>
      <path class="cls-1" d="M263.53,144.16h-6.01v-4.87h6.01c1.31,0,2.38-1.05,2.38-2.36s-1.07-2.36-2.38-2.36h-6.01v-9.4c0-3.82-3.1-6.93-6.93-6.93h-8.79v-4.68c0-1.31-1.07-2.36-2.36-2.36s-2.38,1.05-2.38,2.36v4.68h-4.85v-4.68c0-1.31-1.05-2.36-2.36-2.36s-2.36,1.05-2.36,2.36v4.68h-8.81c-3.8,0-6.91,3.1-6.91,6.93v14.16h-26.44l-6.34-6.58c.15-.46.22-.94.22-1.44,0-2.88-2.34-5.2-5.2-5.2s-5.22,2.32-5.22,5.2,2.34,5.22,5.22,5.22c.48,0,.96-.07,1.4-.2l7.02,7.28c.48.5,1.14.79,1.81.79h27.54v4.57h-38.92c-.7,0-1.36.26-1.84.76l-6.84,7.12c-.2-.02-.39-.04-.61-.04-2.88,0-5.22,2.34-5.22,5.22s2.34,5.22,5.22,5.22,5.22-2.34,5.22-5.22c0-.76-.17-1.51-.48-2.16l5.62-5.86h37.85v4.26c0,3.82,3.1,6.93,6.91,6.93h8.81v5.38c0,1.31,1.05,2.36,2.36,2.36s2.36-1.05,2.36-2.36v-5.38h4.85v5.38c0,1.31,1.07,2.36,2.38,2.36s2.36-1.05,2.36-2.36v-5.38h8.79c3.82,0,6.93-3.1,6.93-6.93v-9.4h6.01c1.31,0,2.38-1.05,2.38-2.36s-1.07-2.36-2.38-2.36ZM251.14,158.28c0,.31-.24.55-.55.55h-31.91c-.31,0-.55-.24-.55-.55v-33.11c0-.31.24-.55.55-.55h31.91c.31,0,.55.24.55.55v33.11Z"/>
    </g>
  </g>
  <g>
    <path class="cls-1" d="M436.69,226.2c-1.74,0-3.11-.53-4.1-1.58-1-1.05-1.49-2.52-1.49-4.38v-120.55c0-1.99.53-3.48,1.58-4.47,1.05-.99,2.45-1.49,4.19-1.49h43.78c13.91,0,24.6,3.35,32.05,10.06,7.45,6.71,11.18,16.27,11.18,28.69s-3.73,21.83-11.18,28.6c-7.45,6.77-18.14,10.15-32.05,10.15h-38.19v49c0,1.86-.47,3.33-1.4,4.38-.93,1.05-2.39,1.58-4.38,1.58ZM442.47,161.17h37.26c10.81,0,18.94-2.42,24.41-7.27,5.46-4.84,8.2-11.98,8.2-21.43s-2.73-16.61-8.2-21.52c-5.47-4.91-13.6-7.36-24.41-7.36h-37.26v57.57Z"/>
    <path class="cls-1" d="M550.9,111.43c-2.61,0-4.63-.68-6.05-2.05-1.43-1.36-2.14-3.29-2.14-5.78s.71-4.38,2.14-5.68c1.43-1.3,3.45-1.96,6.05-1.96s4.63.65,6.05,1.96c1.43,1.3,2.14,3.2,2.14,5.68s-.71,4.41-2.14,5.78c-1.43,1.37-3.45,2.05-6.05,2.05ZM550.9,225.83c-1.86,0-3.29-.56-4.29-1.68s-1.49-2.61-1.49-4.47v-79.75c0-1.98.5-3.48,1.49-4.47.99-.99,2.42-1.49,4.29-1.49,1.74,0,3.1.5,4.1,1.49.99,1,1.49,2.49,1.49,4.47v79.75c0,1.86-.47,3.35-1.4,4.47-.93,1.12-2.33,1.68-4.19,1.68Z"/>
    <path class="cls-1" d="M612.57,226.57c-8.32,0-14.75-2.61-19.29-7.83-4.54-5.22-6.8-12.61-6.8-22.17v-98.19c0-1.99.5-3.45,1.49-4.38.99-.93,2.42-1.4,4.29-1.4,1.74,0,3.1.47,4.1,1.4.99.93,1.49,2.39,1.49,4.38v96.89c0,7.21,1.43,12.58,4.29,16.12,2.86,3.54,7.02,5.31,12.48,5.31,1.24,0,2.3-.06,3.17-.19.87-.12,1.74-.19,2.61-.19,1.12-.12,1.96.09,2.52.65s.84,1.71.84,3.45-.44,3.05-1.3,3.91c-.87.87-2.3,1.49-4.29,1.86-.87.12-1.77.21-2.7.28-.93.06-1.9.09-2.89.09Z"/>
    <path class="cls-1" d="M675.55,226.57c-8.45,0-15.78-1.92-21.99-5.78-6.21-3.85-11.02-9.25-14.44-16.21-3.42-6.95-5.12-15.21-5.12-24.78,0-7.08.96-13.48,2.89-19.19,1.93-5.71,4.72-10.65,8.39-14.81,3.66-4.16,8.07-7.33,13.23-9.5,5.15-2.17,10.84-3.26,17.05-3.26,8.57,0,15.96,1.93,22.17,5.78,6.21,3.85,11.02,9.29,14.44,16.3,3.41,7.02,5.12,15.25,5.12,24.69,0,7.21-.96,13.67-2.89,19.38-1.93,5.71-4.72,10.62-8.39,14.72-3.66,4.1-8.04,7.24-13.13,9.41-5.09,2.17-10.87,3.26-17.33,3.26ZM675.55,217.07c6.21,0,11.58-1.46,16.12-4.38,4.53-2.92,8.01-7.17,10.43-12.76,2.42-5.59,3.63-12.3,3.63-20.12,0-11.8-2.7-20.93-8.1-27.39-5.4-6.46-12.76-9.69-22.08-9.69-6.09,0-11.4,1.46-15.93,4.38-4.54,2.92-8.01,7.14-10.43,12.67-2.42,5.53-3.63,12.2-3.63,20.03,0,11.93,2.73,21.12,8.2,27.58,5.46,6.46,12.73,9.69,21.8,9.69Z"/>
    <path class="cls-1" d="M775.6,226.57c-6.71,0-12.3-1.24-16.77-3.73s-7.83-6.06-10.06-10.71c-2.24-4.66-3.36-10.4-3.36-17.23v-51.05h-13.79c-1.62,0-2.92-.4-3.91-1.21-1-.81-1.49-1.96-1.49-3.45,0-1.37.5-2.45,1.49-3.26.99-.81,2.3-1.21,3.91-1.21h13.79v-23.29c0-1.99.5-3.45,1.49-4.38.99-.93,2.42-1.4,4.29-1.4,1.74,0,3.1.47,4.1,1.4.99.93,1.49,2.39,1.49,4.38v23.29h25.15c1.74,0,3.04.41,3.91,1.21.87.81,1.3,1.9,1.3,3.26,0,1.49-.44,2.64-1.3,3.45-.87.81-2.17,1.21-3.91,1.21h-25.15v49.56c0,7.58,1.55,13.35,4.66,17.33,3.1,3.98,8.26,5.96,15.46,5.96,2.48,0,4.57-.28,6.24-.84,1.68-.56,3.08-.84,4.19-.84.87,0,1.64.37,2.33,1.12.68.75,1.02,1.93,1.02,3.54,0,1-.22,1.99-.65,2.98-.44,1-1.21,1.62-2.33,1.86-1.37.5-3.23.96-5.59,1.4-2.36.43-4.54.65-6.52.65Z"/>
    <path class="cls-1" d="M811.75,226.2c-1.74,0-3.11-.53-4.1-1.58-1-1.05-1.49-2.52-1.49-4.38v-120.55c0-1.99.53-3.48,1.58-4.47,1.05-.99,2.45-1.49,4.19-1.49h43.78c13.91,0,24.6,3.35,32.05,10.06,7.45,6.71,11.18,16.27,11.18,28.69s-3.73,21.83-11.18,28.6c-7.45,6.77-18.14,10.15-32.05,10.15h-38.19v49c0,1.86-.47,3.33-1.4,4.38-.93,1.05-2.39,1.58-4.38,1.58ZM817.52,161.17h37.26c10.81,0,18.94-2.42,24.41-7.27,5.46-4.84,8.2-11.98,8.2-21.43s-2.73-16.61-8.2-21.52c-5.47-4.91-13.6-7.36-24.41-7.36h-37.26v57.57Z"/>
    <path class="cls-1" d="M952.04,226.57c-7.21,0-13.2-1.3-17.98-3.91-4.78-2.61-8.36-6.52-10.71-11.74-2.36-5.22-3.54-11.67-3.54-19.38v-52.17c0-1.98.5-3.48,1.49-4.47.99-.99,2.42-1.49,4.29-1.49,1.74,0,3.1.5,4.1,1.49.99,1,1.49,2.49,1.49,4.47v51.61c0,8.7,1.8,15.19,5.4,19.47,3.6,4.29,9.25,6.43,16.96,6.43,8.45,0,15.28-2.82,20.5-8.48,5.22-5.65,7.82-13.07,7.82-22.26v-46.77c0-1.98.5-3.48,1.49-4.47.99-.99,2.42-1.49,4.29-1.49,1.74,0,3.1.5,4.1,1.49.99,1,1.49,2.49,1.49,4.47v81.05c0,3.85-1.8,5.78-5.4,5.78-1.74,0-3.11-.5-4.1-1.49-.99-.99-1.49-2.42-1.49-4.29v-18.45l2.23,1.3c-2.36,7.58-6.46,13.35-12.3,17.33-5.84,3.98-12.55,5.96-20.12,5.96Z"/>
    <path class="cls-1" d="M1049.3,226.57c-8.32,0-14.75-2.61-19.29-7.83-4.54-5.22-6.8-12.61-6.8-22.17v-98.19c0-1.99.5-3.45,1.49-4.38.99-.93,2.42-1.4,4.29-1.4,1.74,0,3.1.47,4.1,1.4.99.93,1.49,2.39,1.49,4.38v96.89c0,7.21,1.43,12.58,4.29,16.12,2.86,3.54,7.02,5.31,12.48,5.31,1.24,0,2.3-.06,3.17-.19.87-.12,1.74-.19,2.61-.19,1.12-.12,1.96.09,2.52.65s.84,1.71.84,3.45-.44,3.05-1.3,3.91c-.87.87-2.3,1.49-4.29,1.86-.87.12-1.77.21-2.7.28-.93.06-1.9.09-2.89.09Z"/>
    <path class="cls-1" d="M1105.75,226.57c-5.59,0-11.15-.75-16.68-2.24-5.53-1.49-10.78-4.04-15.74-7.64-.99-.62-1.65-1.4-1.95-2.33-.31-.93-.37-1.89-.19-2.89.19-.99.62-1.83,1.3-2.52.68-.68,1.52-1.09,2.52-1.21.99-.12,2.05.19,3.17.93,4.84,3.23,9.56,5.47,14.16,6.71,4.59,1.24,9.19,1.86,13.79,1.86,7.57,0,13.35-1.43,17.33-4.29,3.97-2.86,5.96-6.71,5.96-11.55,0-3.97-1.27-7.05-3.82-9.22-2.55-2.17-6.68-3.94-12.39-5.31l-16.21-3.73c-7.82-1.74-13.6-4.56-17.33-8.48s-5.59-8.97-5.59-15.19c0-5.34,1.4-10,4.19-13.97,2.79-3.97,6.77-7.05,11.92-9.22,5.15-2.17,11.09-3.26,17.79-3.26,5.46,0,10.68.81,15.65,2.42,4.97,1.62,9.32,4.1,13.04,7.45.99.74,1.65,1.62,1.96,2.61.31,1,.31,1.96,0,2.89-.31.93-.84,1.71-1.58,2.33-.75.62-1.62.93-2.61.93s-2.05-.37-3.17-1.12c-3.6-2.73-7.39-4.75-11.36-6.05-3.98-1.3-8.01-1.96-12.11-1.96-7.21,0-12.76,1.49-16.68,4.47-3.91,2.98-5.87,7.02-5.87,12.11,0,3.85,1.21,6.96,3.63,9.32,2.42,2.36,6.24,4.16,11.46,5.4l16.21,3.73c8.07,1.86,14.09,4.63,18.07,8.29,3.97,3.67,5.96,8.6,5.96,14.81,0,7.95-3.14,14.25-9.41,18.91-6.27,4.66-14.75,6.99-25.43,6.99Z"/>
    <path class="cls-1" d="M1204.69,226.57c-9.32,0-17.33-1.86-24.03-5.59-6.71-3.73-11.86-9.07-15.46-16.02-3.6-6.95-5.4-15.21-5.4-24.78s1.8-17.67,5.4-24.69c3.6-7.02,8.6-12.51,15-16.49,6.4-3.97,13.76-5.96,22.08-5.96,6.08,0,11.46,1.02,16.12,3.07,4.66,2.05,8.63,4.97,11.92,8.76,3.29,3.79,5.81,8.38,7.54,13.79,1.74,5.4,2.61,11.52,2.61,18.35,0,1.74-.47,3.05-1.4,3.91-.93.87-2.21,1.3-3.82,1.3h-67.26v-8.38h65.4l-2.98,2.42c0-7.2-1.06-13.32-3.17-18.35-2.11-5.03-5.25-8.91-9.41-11.64-4.16-2.73-9.29-4.1-15.37-4.1-6.83,0-12.61,1.58-17.33,4.75-4.72,3.17-8.26,7.52-10.62,13.04-2.36,5.53-3.54,11.9-3.54,19.1v.93c0,11.92,2.92,21.09,8.76,27.48,5.84,6.4,14.03,9.6,24.6,9.6,4.59,0,9.04-.62,13.32-1.86,4.29-1.24,8.48-3.35,12.58-6.33,1.24-.87,2.45-1.3,3.63-1.3s2.17.31,2.98.93c.81.62,1.37,1.4,1.68,2.33.31.93.25,1.93-.19,2.98-.44,1.06-1.28,2.02-2.52,2.89-3.98,3.23-8.76,5.68-14.35,7.36-5.59,1.68-11.18,2.52-16.77,2.52Z"/>
    <path class="cls-1" d="M1269.16,225.64c-2.49,0-4.54-.81-6.15-2.42-1.62-1.61-2.42-3.66-2.42-6.15s.81-4.53,2.42-6.15c1.61-1.61,3.66-2.42,6.15-2.42,2.61,0,4.69.81,6.24,2.42,1.55,1.62,2.33,3.67,2.33,6.15s-.78,4.54-2.33,6.15c-1.55,1.62-3.63,2.42-6.24,2.42Z"/>
    <path class="cls-1" d="M1332.32,226.57c-6.09,0-11.52-1.18-16.3-3.54-4.78-2.36-8.57-5.59-11.36-9.69-2.8-4.1-4.19-8.69-4.19-13.79,0-6.71,1.68-11.99,5.03-15.84,3.35-3.85,9-6.55,16.95-8.1,7.95-1.55,18.88-2.33,32.79-2.33h8.01v8.38h-7.83c-11.18,0-19.91.47-26.18,1.4-6.27.93-10.65,2.64-13.13,5.12-2.49,2.49-3.73,5.96-3.73,10.43,0,5.59,1.92,10.12,5.78,13.6,3.85,3.48,9.07,5.22,15.65,5.22,5.34,0,10.03-1.27,14.07-3.82,4.04-2.54,7.24-6.05,9.6-10.53,2.36-4.47,3.54-9.56,3.54-15.28v-21.24c0-8.32-1.68-14.38-5.03-18.17-3.35-3.79-8.7-5.68-16.02-5.68-4.72,0-9.29.62-13.69,1.86-4.41,1.24-9.1,3.23-14.07,5.96-1.37.75-2.58,1-3.63.75-1.06-.25-1.86-.75-2.42-1.49s-.93-1.64-1.12-2.7c-.19-1.05-.03-2.08.47-3.07.5-.99,1.37-1.8,2.61-2.42,5.22-2.86,10.53-5,15.93-6.43,5.4-1.43,10.65-2.14,15.74-2.14,7.33,0,13.38,1.24,18.17,3.73,4.78,2.49,8.32,6.21,10.62,11.18,2.3,4.97,3.45,11.37,3.45,19.19v53.29c0,1.86-.44,3.29-1.3,4.29-.87.99-2.17,1.49-3.91,1.49s-3.11-.5-4.1-1.49c-1-.99-1.49-2.42-1.49-4.29v-17.14h1.86c-1.12,4.84-3.11,9.01-5.96,12.48-2.86,3.48-6.4,6.15-10.62,8.01-4.23,1.86-8.94,2.79-14.16,2.79Z"/>
    <path class="cls-1" d="M1407.4,111.43c-2.61,0-4.63-.68-6.05-2.05-1.43-1.36-2.14-3.29-2.14-5.78s.71-4.38,2.14-5.68c1.43-1.3,3.45-1.96,6.05-1.96s4.63.65,6.05,1.96c1.43,1.3,2.14,3.2,2.14,5.68s-.71,4.41-2.14,5.78c-1.43,1.37-3.45,2.05-6.05,2.05ZM1407.4,225.83c-1.86,0-3.29-.56-4.29-1.68-.99-1.12-1.49-2.61-1.49-4.47v-79.75c0-1.98.5-3.48,1.49-4.47.99-.99,2.42-1.49,4.29-1.49,1.74,0,3.1.5,4.1,1.49.99,1,1.49,2.49,1.49,4.47v79.75c0,1.86-.47,3.35-1.4,4.47-.93,1.12-2.33,1.68-4.19,1.68Z"/>
  </g>
</svg>