<?xml version="1.0" encoding="UTF-8"?>
<svg id="Layer_2" data-name="Layer 2" xmlns="http://www.w3.org/2000/svg" viewBox="0 0 32 32">
  <defs>
    <style>
      .cls-1 {
        fill: #fff;
      }

      .cls-2 {
        fill: #4633ff;
      }
    </style>
  </defs>
  <g id="Layer_1-2" data-name="Layer 1">
    <g>
      <rect class="cls-2" width="32" height="32" rx="4.92" ry="4.92"/>
      <g>
        <g>
          <circle class="cls-1" cx="22.84" cy="14.96" r=".63"/>
          <path class="cls-1" d="M27.19,15.54s-.07-.06-.07-.11c-1.36-6.94-9.72-8.11-15.26-5.46-.04.02-.1.02-.14,0-2.04-1.05-5.03-1.1-6.9.31-1.06.79.56,1.08,1.09,1.32.66.29,1.28.73,1.62,1.39.03.06.02.13-.03.18-2.16,2.33-4.21,5.13-5.11,8.22-.11.39-.42,1.39-.28,1.73.29.7,1.23-.47,1.48-.68,2.09-1.75,4.26-2.81,6.95-3.31,1.39-.26,2.83-.37,4.25-.25.08,0,.15.08.15.16-.02.71-.35,1.44-.68,2.05-.17.32-1.01,1.44-1.02,1.63-.03.63,1.27.35,1.66.28.9-.18,1.68-.55,2.41-1.07.13-.09.3.05.24.2-.16.37-.4.79-.31,1,.14.32.57.1.78,0,1.23-.61,2.26-2.09,2.56-3.42.07-.33.09-.67.16-1,.01-.07.07-.12.13-.13,1.29-.2,2.57-.21,3.85.03.99.19,1.98.62,2.95.81.85.17,1.87-.04,2.17-.98.52-1.66-1.56-2.25-2.65-2.89h0ZM28.14,18.41c-.73-.07-1.84-.57-2.62-.76-1.67-.4-4.36-.53-5.99.04-.38.14-.58.78-.79,1.11-.81,1.3-2.18,2.72-3.72,3.11-.03,0-.09.02-.08-.03.35-.47.63-.95.81-1.52.18-.59.33-1.52.18-2.12-.12-.49-.42-.46-.86-.52-1.91-.23-4.51.21-6.37.71-1.68.46-3.19,1.2-4.59,2.19-.13.09-.3-.04-.24-.19,1.07-2.66,2.87-4.95,4.87-6.98.04-.04.05-.09.04-.14-.15-.81-.67-1.52-1.27-2.06-.1-.09-.22-.17-.34-.23l-.38-.2h0c-.12-.07-.11-.25.03-.29.23-.08.46-.17.7-.21,1.5-.27,2.88.22,4.2.85.04.02.09.02.14,0,3.21-1.54,7.11-2.1,10.41-.48,1.86.92,3.03,2.32,3.65,4.29.19.62.08,1.1.69,1.48.58.36,1.39.64,1.94,1.03.53.38.28.98-.39.92h0Z"/>
        </g>
        <g>
          <rect class="cls-1" x="16.03" y="13.16" width="2.07" height="2.14" rx=".94" ry=".94"/>
          <path class="cls-1" d="M14.63,12.84v.54h-.84c-.08,0-.16-.04-.21-.1l-.56-.67s-.07.01-.11.01c-.31,0-.56-.25-.56-.56s.25-.56.56-.56.56.25.56.56c0,.07-.01.13-.04.19l.48.58h.71Z"/>
          <path class="cls-1" d="M20.15,14.49h-.64v-.52h.64c.14,0,.25-.11.25-.25s-.11-.25-.25-.25h-.64v-1c0-.41-.33-.74-.74-.74h-.94v-.5c0-.14-.11-.25-.25-.25s-.25.11-.25.25v.5h-.52v-.5c0-.14-.11-.25-.25-.25s-.25.11-.25.25v.5h-.94c-.41,0-.74.33-.74.74v1.51h-2.82l-.68-.7s.02-.1.02-.15c0-.31-.25-.56-.56-.56s-.56.25-.56.56.25.56.56.56c.05,0,.1,0,.15-.02l.75.78c.05.05.12.08.19.08h2.94v.49h-4.16c-.07,0-.15.03-.2.08l-.73.76s-.04,0-.07,0c-.31,0-.56.25-.56.56s.25.56.56.56.56-.25.56-.56c0-.08-.02-.16-.05-.23l.6-.63h4.04v.46c0,.41.33.74.74.74h.94v.57c0,.14.11.25.25.25s.25-.11.25-.25v-.57h.52v.57c0,.14.11.25.25.25s.25-.11.25-.25v-.57h.94c.41,0,.74-.33.74-.74v-1h.64c.14,0,.25-.11.25-.25s-.11-.25-.25-.25h0ZM18.83,16s-.03.06-.06.06h-3.41s-.06-.03-.06-.06v-3.54s.03-.06.06-.06h3.41s.06.03.06.06v3.54Z"/>
        </g>
      </g>
    </g>
  </g>
</svg>