<?xml version="1.0" encoding="UTF-8"?>
<svg id="Layer_2" data-name="Layer 2" xmlns="http://www.w3.org/2000/svg" viewBox="0 0 32 32">
  <defs>
    <style>
      .cls-1 {
        fill: #fff;
      }

      .cls-2 {
        fill: #4633ff;
      }
    </style>
  </defs>
  <g id="Layer_1-2" data-name="Layer 1">
    <g>
      <rect class="cls-1" width="32" height="32" rx="4.92" ry="4.92"/>
      <g>
        <g>
          <circle class="cls-2" cx="22.21" cy="15.06" r=".57"/>
          <path class="cls-2" d="M26.16,15.58s-.06-.06-.07-.1c-1.24-6.3-8.83-7.36-13.85-4.96-.04.02-.09.02-.13,0-1.85-.95-4.57-1-6.27.28-.96.72.51.98.99,1.2.6.26,1.16.67,1.47,1.26.03.06.02.12-.02.16-1.96,2.12-3.82,4.65-4.64,7.46-.1.35-.38,1.26-.25,1.57.26.63,1.11-.43,1.34-.62,1.9-1.59,3.86-2.55,6.31-3.01,1.27-.23,2.57-.33,3.86-.23.08,0,.14.07.13.15-.01.64-.32,1.31-.62,1.86-.16.29-.92,1.3-.92,1.48-.03.57,1.16.32,1.5.25.82-.16,1.53-.5,2.19-.97.12-.08.28.04.22.18-.15.34-.36.72-.28.9.13.29.52.09.71,0,1.12-.56,2.05-1.9,2.33-3.1.07-.3.08-.61.14-.91.01-.06.06-.11.12-.12,1.17-.18,2.33-.19,3.5.03.9.17,1.8.56,2.68.73.78.15,1.7-.04,1.97-.89.47-1.5-1.42-2.05-2.4-2.62h0ZM27.02,18.18c-.67-.06-1.67-.52-2.38-.69-1.51-.36-3.96-.48-5.44.04-.35.12-.53.7-.72,1.01-.74,1.18-1.98,2.47-3.38,2.82-.03,0-.08.01-.07-.02.32-.43.57-.87.73-1.38.16-.53.3-1.38.17-1.92-.11-.44-.38-.42-.78-.47-1.74-.21-4.1.19-5.79.65-1.52.42-2.89,1.09-4.17,1.99-.12.08-.27-.04-.22-.17.97-2.41,2.61-4.49,4.42-6.33.03-.03.05-.08.04-.13-.14-.74-.61-1.38-1.16-1.87-.09-.08-.2-.15-.31-.21l-.34-.18h0c-.11-.06-.1-.23.02-.27.21-.07.42-.16.63-.19,1.36-.24,2.61.2,3.82.77.04.02.08.02.13,0,2.92-1.4,6.46-1.91,9.45-.43,1.69.83,2.75,2.1,3.31,3.9.18.56.08,1,.63,1.34.53.33,1.27.58,1.76.93.48.35.26.89-.35.83h0Z"/>
        </g>
        <g>
          <rect class="cls-2" x="16.03" y="13.42" width="1.88" height="1.94" rx=".94" ry=".94"/>
          <path class="cls-2" d="M14.75,13.14v.49h-.76c-.07,0-.14-.03-.19-.09l-.51-.61s-.07.01-.1.01c-.28,0-.5-.22-.5-.5s.22-.51.5-.51.51.23.51.51c0,.06-.01.12-.03.17l.44.53h.65Z"/>
          <path class="cls-2" d="M19.77,14.63h-.58v-.47h.58c.13,0,.23-.1.23-.23s-.1-.23-.23-.23h-.58v-.91c0-.37-.3-.67-.67-.67h-.85v-.45c0-.13-.1-.23-.23-.23s-.23.1-.23.23v.45h-.47v-.45c0-.13-.1-.23-.23-.23s-.23.1-.23.23v.45h-.85c-.37,0-.67.3-.67.67v1.37h-2.56l-.61-.64s.02-.09.02-.14c0-.28-.23-.5-.5-.5s-.51.22-.51.5.23.51.51.51c.05,0,.09,0,.14-.02l.68.71s.11.08.18.08h2.67v.44h-3.77c-.07,0-.13.03-.18.07l-.66.69s-.04,0-.06,0c-.28,0-.51.23-.51.51s.23.51.51.51.51-.23.51-.51c0-.07-.02-.15-.05-.21l.55-.57h3.67v.41c0,.37.3.67.67.67h.85v.52c0,.13.1.23.23.23s.23-.1.23-.23v-.52h.47v.52c0,.13.1.23.23.23s.23-.1.23-.23v-.52h.85c.37,0,.67-.3.67-.67v-.91h.58c.13,0,.23-.1.23-.23s-.1-.23-.23-.23h0ZM18.57,16s-.02.05-.05.05h-3.09s-.05-.02-.05-.05v-3.21s.02-.05.05-.05h3.09s.05.02.05.05v3.21Z"/>
        </g>
      </g>
    </g>
  </g>
</svg>